<svg width="110" height="22" viewBox="0 0 110 22" fill="none" xmlns="http://www.w3.org/2000/svg"><g clip-path="url(#clip0_851_382)"><path d="M102.464 7.98264L102.542 7.2387C102.542 7.17507 102.542 7.09676 102.542 7.01845V3.37708H103.577V5.11946C103.734 4.92982 103.936 4.77779 104.166 4.67573C104.396 4.57367 104.649 4.52447 104.903 4.53214C105.737 4.53214 106.499 4.9922 106.499 6.24026C106.499 7.48831 105.758 8.05116 104.826 8.05116C104.535 8.06787 104.244 8.01201 103.983 7.88917C103.722 7.76633 103.5 7.58083 103.339 7.35127L103.256 7.96795L102.464 7.98264ZM103.609 6.5486C103.608 6.66211 103.633 6.77446 103.68 6.87873C103.728 6.98301 103.797 7.077 103.884 7.15494C103.972 7.23288 104.075 7.29311 104.188 7.33192C104.301 7.37074 104.421 7.38731 104.541 7.38064C105.017 7.38064 105.463 7.14571 105.463 6.27941C105.463 5.41312 105.007 5.23692 104.536 5.23692C104.414 5.23288 104.292 5.25246 104.178 5.29444C104.065 5.33642 103.961 5.39992 103.874 5.48104C103.787 5.56217 103.719 5.6592 103.673 5.76619C103.628 5.87318 103.606 5.98787 103.609 6.10322V6.5486Z" fill="#0C1F1C"></path><path d="M0 0.30835H6.33958C11.5759 0.30835 14.2641 2.9366 14.2641 6.11302C14.2677 7.08398 13.9522 8.03205 13.3612 8.82633C12.7703 9.62062 11.9329 10.2219 10.9648 10.5473L10.9959 10.7284C13.9067 11.3989 15.5537 13.5083 15.5537 15.8919C15.5537 19.1026 12.8708 21.6966 7.63442 21.6966H0V0.30835ZM2.5897 2.44717V9.78866H6.6607C10.1879 9.78866 11.6744 8.17353 11.6744 6.12281C11.6744 4.07209 10.0895 2.45696 6.33958 2.45696L2.5897 2.44717ZM2.5897 11.9226V19.5577H7.61371C11.3636 19.5577 12.9485 17.9083 12.9485 15.8919C12.9485 13.7237 11.462 11.9226 7.93483 11.9226H2.5897Z" fill="#0C1F1C"></path><path d="M22.5044 0.303436H19.9199V21.6916H22.5044V0.303436Z" fill="#0C1F1C"></path><path d="M38.1717 0C39.6862 0.00694027 41.1841 0.297666 42.5788 0.85535C43.9735 1.41303 45.2373 2.2266 46.2971 3.24895C47.3568 4.2713 48.1914 5.48213 48.7526 6.81134C49.3138 8.14055 49.5904 9.56175 49.5664 10.9927C49.5664 17.2574 44.5579 21.9951 38.2183 21.9951C31.8788 21.9951 26.9014 17.2574 26.9014 10.9927C26.9014 4.72792 31.8891 0 38.1717 0ZM38.1717 19.8661C42.8953 19.8661 46.9353 16.0436 46.9353 11.0024C46.9353 6.299 43.087 2.14371 38.1717 2.14371C33.2565 2.14371 29.4393 6.299 29.4393 11.0024C29.4393 16.0436 33.2876 19.8661 38.1717 19.8661Z" fill="#0C1F1C"></path><path d="M75.5099 4.24828L75.3183 4.21892L75.0904 5.13415L67.0053 21.6966H64.9025L56.8175 5.13415L56.5274 3.93994L56.3358 3.9742V21.6966H53.7461V0.30835H57.1127L65.4878 17.8447L65.84 19.0096H66.0368L66.4563 17.8154L74.8003 0.30835H78.0996V21.6966H75.5099V4.24828Z" fill="#0C1F1C"></path><path d="M95.6945 15.2507H86.7342L84.3102 21.6966H81.332L90.0023 0.30835H92.4263L101.091 21.6966H98.1184L95.6945 15.2507ZM87.5421 13.1119H94.8813L91.4578 3.94483L91.292 3.30368H91.1004L90.9709 3.94483L87.5421 13.1119Z" fill="#0C1F1C"></path><path d="M104.303 11.1052C103.176 11.1052 102.074 10.7895 101.138 10.1979C100.201 9.60633 99.4704 8.7655 99.0392 7.78174C98.6079 6.79799 98.4951 5.7155 98.7149 4.67115C98.9348 3.6268 99.4774 2.66751 100.274 1.91458C101.071 1.16165 102.086 0.648891 103.191 0.441158C104.296 0.233424 105.442 0.34004 106.483 0.747523C107.524 1.15501 108.414 1.84506 109.04 2.73041C109.666 3.61577 110 4.65666 110 5.72147C110 7.14933 109.4 8.51871 108.331 9.52836C107.263 10.538 105.814 11.1052 104.303 11.1052ZM104.303 1.26274C103.37 1.26274 102.457 1.52424 101.681 2.01417C100.905 2.5041 100.301 3.20046 99.9435 4.01519C99.5864 4.82991 99.493 5.72641 99.675 6.59132C99.8571 7.45623 100.306 8.2507 100.966 8.87427C101.626 9.49783 102.467 9.92249 103.382 10.0945C104.298 10.2666 105.246 10.1783 106.108 9.8408C106.971 9.50333 107.708 8.93184 108.226 8.19861C108.745 7.46537 109.021 6.60332 109.021 5.72147C109.02 4.53934 108.522 3.406 107.638 2.5701C106.753 1.73421 105.554 1.26404 104.303 1.26274Z" fill="#0C1F1C"></path></g><defs><clipPath id="clip0_851_382"><rect width="110" height="22" fill="white"></rect></clipPath></defs></svg>